:SAMPLES-PER-SECOND 30
:FULLY-SPECIFIED
:DEGREES
553
root  2.98602 34.1442 -13.5676 -156.273 69.2075 -173.948
LeftUpLeg  -30.5763 8.85074 3.76716
LeftLeg  11.5874 -3.02167 -0.420732
LeftFoot  11.635 0.0249581 -0.251426
LeftToes  -21.1549 7.65994e-007 1.12379e-007
Spine  10.7476 5.28031 -0.649281
Spine1  20.3411 12.572 -4.13227
RightShoulder  0.192585 4.11256 -11.3296
RightArm  5.36819 34.7399 88.8854
RightForeArm  127.852 64.237 158.191
RightHand  0.924187 -13.6987 -7.30928
LeftShoulder1  -0.0125604 -2.80406 -2.23588
LeftArm  30.5289 16.009 -51.3946
LeftForeArm  66.9073 -74.5425 -39.9483
LeftHand  -3.63495 -9.41168 41.8191
HEad  2.06 20.9224 -8.24714
RightUpLeg  -27.6823 -8.97387 6.10467
RightLeg  15.5932 10.6993 2.24489
RightFoot  2.31183 -0.00798985 0.773293
RightToes  -20.7184 -0.0853819 -0.182573
554
root  3.14807 34.1427 -13.3645 -156.964 68.3069 -174.199
LeftUpLeg  -29.9252 8.2022 4.40584
LeftLeg  11.1552 -3.14556 -0.413713
LeftFoot  11.9526 0.0318867 -0.304602
LeftToes  -21.8264 7.65994e-007 1.12379e-007
Spine  10.4761 5.22614 -0.53629
Spine1  19.9153 12.3481 -3.69832
RightShoulder  0.183857 4.13031 -11.4779
RightArm  5.95177 34.6214 89.3515
RightForeArm  127.748 63.9341 158.495
RightHand  0.984418 -13.6771 -7.82113
LeftShoulder1  -0.0122365 -2.46278 -2.272
LeftArm  29.4154 16.7882 -52.1196
LeftForeArm  66.972 -74.5953 -40.1225
LeftHand  -3.61749 -9.81727 40.0331
HEad  2.46249 21.3202 -8.39236
RightUpLeg  -26.992 -9.32858 6.4976
RightLeg  15.444 10.2384 2.12164
RightFoot  1.99339 -0.00522784 0.677804
RightToes  -20.0333 -0.0816443 -0.17709
555
root  3.3009 34.1386 -13.161 -157.837 67.3963 -174.68
LeftUpLeg  -29.4229 7.67604 4.86421
LeftLeg  10.8796 -3.45403 -0.437199
LeftFoot  12.2559 0.0425732 -0.396545
LeftToes  -22.4143 7.65994e-007 1.12379e-007
Spine  10.2103 5.19224 -0.455846
Spine1  19.4804 12.1776 -3.34396
RightShoulder  0.176085 4.09646 -11.6077
RightArm  6.54766 34.5353 89.6759
RightForeArm  127.645 63.7416 158.685
RightHand  0.988574 -13.7015 -7.84087
LeftShoulder1  -0.0119603 -2.0648 -2.34874
LeftArm  28.5567 17.4941 -52.5935
LeftForeArm  67.0994 -74.8426 -40.9616
LeftHand  -3.46217 -9.92149 38.0498
HEad  2.68933 21.7627 -8.42816
RightUpLeg  -26.4691 -10.0144 6.90457
RightLeg  15.5014 10.021 2.08744
RightFoot  1.59797 -0.00313027 0.58486
RightToes  -19.2822 -0.0774933 -0.171026
556
root  3.46765 34.1306 -12.9556 -159.096 66.5782 -175.169
LeftUpLeg  -28.4606 7.37237 5.28394
LeftLeg  10.4744 -3.97551 -0.474349
LeftFoot  12.5555 0.0585108 -0.531882
LeftToes  -22.9534 7.65994e-007 1.12379e-007
Spine  10.1011 5.29086 -0.374168
Spine1  19.334 12.3143 -3.05914
RightShoulder  0.17251 3.99653 -11.6992
RightArm  6.85402 34.569 89.6936
RightForeArm  127.556 63.7301 158.697
RightHand  0.99957 -13.6877 -7.94029
LeftShoulder1  -0.0117305 -2.09881 -2.3771
LeftArm  27.0451 18.5211 -53.0566
LeftForeArm  67.4997 -75.1471 -42.0473
LeftHand  -3.33244 -10.1187 36.0311
HEad  3.05755 22.1461 -8.32517
RightUpLeg  -25.5117 -10.3184 7.09875
RightLeg  15.5012 9.46648 1.97299
RightFoot  1.18941 -0.0011671 0.489694
RightToes  -18.4642 -0.0738202 -0.16436
557
root  3.65137 34.1322 -12.7494 -161.338 66.3145 -176.496
LeftUpLeg  -27.1632 7.88603 5.10236
LeftLeg  10.0102 -4.8466 -0.538
LeftFoot  12.9322 0.0842325 -0.743211
LeftToes  -23.3714 7.65994e-007 1.12379e-007
Spine  10.1422 5.55874 -0.511538
Spine1  19.3825 12.8816 -3.30313
RightShoulder  0.174303 3.90293 -11.7512
RightArm  7.18481 34.8409 89.8785
RightForeArm  127.186 63.9796 158.453
RightHand  1.00427 -13.6227 -8.01927
LeftShoulder1  -0.0115457 -1.68938 -2.33404
LeftArm  25.541 19.0712 -53.598
LeftForeArm  66.2729 -75.1595 -42.098
LeftHand  -3.06371 -9.7082 34.6115
HEad  3.20243 22.5606 -8.32162
RightUpLeg  -24.3978 -10.0448 6.73172
RightLeg  15.7154 8.71366 1.85115
RightFoot  0.738146 -0.000175843 0.404458
RightToes  -17.9769 -0.0704704 -0.16036
558
root  3.77338 34.1298 -12.6045 -162.95 65.0469 -177.533
LeftUpLeg  -26.3637 6.81505 5.2786
LeftLeg  9.40872 -5.04872 -0.506742
LeftFoot  13.4323 0.098037 -0.83252
LeftToes  -23.7631 7.65994e-007 1.12379e-007
Spine  10.0343 5.51365 -0.427636
Spine1  19.2154 12.747 -3.06973
RightShoulder  0.171203 3.89446 -11.9146
RightArm  7.10348 34.8046 89.8153
RightForeArm  127.051 63.8455 158.586
RightHand  1.02647 -13.7305 -8.1364
LeftShoulder1  -0.0114046 -1.81931 -2.29453
LeftArm  23.3906 20.4256 -54.5972
LeftForeArm  62.9423 -74.9509 -41.3564
LeftHand  -2.68005 -9.12306 32.3354
HEad  3.45994 22.6995 -8.29379
RightUpLeg  -23.7739 -11.0231 6.71369
RightLeg  15.9958 8.35115 1.8172
RightFoot  0.251749 0.000121409 0.32138
RightToes  -17.4325 -0.0676132 -0.154267
559
root  3.88351 34.1208 -12.4558 -163.618 63.7853 -178.008
LeftUpLeg  -26.1269 6.25899 5.44191
LeftLeg  9.00188 -5.65826 -0.527067
LeftFoot  13.72 0.12214 -1.01524
LeftToes  -23.8123 7.65994e-007 1.12379e-007
Spine  9.79912 5.41661 -0.320775
Spine1  18.8298 12.4584 -2.70681
RightShoulder  0.164293 3.745 -11.868
RightArm  7.57131 34.7497 90.1158
RightForeArm  127.3 63.5975 158.827
RightHand  1.00947 -13.6214 -8.06337
LeftShoulder1  -0.0113057 -1.47835 -2.42632
LeftArm  20.8511 21.6374 -55.8954
LeftForeArm  58.6239 -74.2069 -38.9031
LeftHand  -2.27847 -8.42604 29.8679
HEad  3.7528 22.9531 -8.38445
RightUpLeg  -23.573 -12.0459 7.0198
RightLeg  16.1851 8.09614 1.78995
RightFoot  -0.186923 -0.000219068 0.24418
RightToes  -16.6358 -0.0638333 -0.149238
560
root  3.99175 34.1194 -12.3225 -164.196 62.7631 -178.383
LeftUpLeg  -25.8013 6.09904 5.51309
LeftLeg  8.52429 -6.21061 -0.526094
LeftFoot  14.0148 0.146233 -1.18967
LeftToes  -23.7175 7.65994e-007 1.12379e-007
Spine  9.56566 5.42565 -0.221083
Spine1  18.4484 12.3857 -2.34738
RightShoulder  0.15777 3.6911 -11.8699
RightArm  7.9108 34.5438 90.2834
RightForeArm  127.249 63.2711 159.138
RightHand  1.00719 -13.6558 -8.0231
LeftShoulder1  -0.0112478 -1.30072 -2.58374
LeftArm  18.0668 22.7671 -57.4866
LeftForeArm  53.4476 -72.798 -34.9962
LeftHand  -1.81289 -7.22677 27.787
HEad  4.27424 23.0705 -8.36761
RightUpLeg  -23.2061 -12.6041 7.21088
RightLeg  16.0399 7.63929 1.66938
RightFoot  -0.417499 -0.000641557 0.201803
RightToes  -16.0679 -0.0606406 -0.146995
561
root  4.08527 34.1187 -12.2126 -164.763 61.832 -178.734
LeftUpLeg  -25.4591 6.21961 5.44238
LeftLeg  8.12707 -5.94741 -0.462451
LeftFoot  14.3254 0.146574 -1.16633
LeftToes  -23.4453 7.65994e-007 1.12379e-007
Spine  9.34838 5.47151 -0.123716
Spine1  18.0966 12.3891 -1.99375
RightShoulder  0.151752 3.59794 -11.8828
RightArm  8.3241 34.2682 90.5108
RightForeArm  127.093 62.92 159.465
RightHand  1.01372 -13.7508 -8.01861
LeftShoulder1  -0.0112295 -1.24806 -2.82217
LeftArm  14.3733 23.8192 -59.412
LeftForeArm  48.4134 -70.8068 -30.6495
LeftHand  -1.37892 -6.12 25.0302
HEad  4.75463 23.0902 -8.18315
RightUpLeg  -22.8319 -13.1002 7.32425
RightLeg  15.91 7.2032 1.55758
RightFoot  -0.586666 -0.00151942 0.172303
RightToes  -15.887 -0.0592396 -0.145507
562
root  4.16671 34.119 -12.1224 -165.287 60.9442 -179.051
LeftUpLeg  -25.1718 6.76137 5.19296
LeftLeg  8.01787 -4.4934 -0.341276
LeftFoot  14.5257 0.105669 -0.829136
LeftToes  -23.1288 7.65994e-007 1.12379e-007
Spine  9.13934 5.5105 -0.0475302
Spine1  17.7504 12.3819 -1.68754
RightShoulder  0.145475 3.5327 -11.8641
RightArm  8.78569 33.9922 90.83
RightForeArm  127.24 62.6049 159.749
RightHand  1.0549 -13.7762 -8.34194
LeftShoulder1  -0.0112494 -1.0971 -3.0294
LeftArm  10.3743 24.5058 -61.5371
LeftForeArm  43.5703 -68.3534 -26.5426
LeftHand  -0.880889 -4.69425 20.9053
HEad  5.25691 23.2454 -7.92579
RightUpLeg  -22.4934 -13.6405 7.41817
RightLeg  15.801 6.85831 1.46978
RightFoot  -0.773376 -0.00158957 0.142156
RightToes  -15.5567 -0.0587325 -0.144682
563
root  4.23681 34.1213 -12.0494 -165.695 60.0756 -179.293
LeftUpLeg  -24.9658 7.69398 4.81315
LeftLeg  8.22955 -2.80661 -0.224097
LeftFoot  14.4952 0.0527185 -0.414547
LeftToes  -22.8194 7.65994e-007 1.12379e-007
Spine  8.92795 5.52509 0.028198
Spine1  17.3944 12.3256 -1.38831
RightShoulder  0.138891 3.48764 -11.7986
RightArm  9.29782 33.8055 91.2039
RightForeArm  127.211 62.4051 159.927
RightHand  1.04771 -13.8132 -8.2595
LeftShoulder1  -0.0113062 -0.904459 -3.23073
LeftArm  5.93391 24.8607 -63.8974
LeftForeArm  39.6784 -65.3831 -22.7538
LeftHand  -0.43516 -2.98982 16.2258
HEad  5.88252 23.4316 -7.58441
RightUpLeg  -22.0774 -14.0651 7.49414
RightLeg  15.4172 6.41512 1.33056
RightFoot  -0.833784 -0.00197557 0.129526
RightToes  -15.4859 -0.0586713 -0.144428
564
root  4.28821 34.1264 -11.9918 -166.06 59.1541 -179.525
LeftUpLeg  -24.7826 8.52355 4.43319
LeftLeg  8.52067 -1.69332 -0.14431
LeftFoot  14.292 0.0177866 -0.14188
LeftToes  -22.779 7.65994e-007 1.12379e-007
Spine  8.71806 5.52793 0.0852008
Spine1  17.0272 12.257 -1.1453
RightShoulder  0.132899 3.46242 -11.781
RightArm  9.64537 33.549 91.4609
RightForeArm  127.044 62.093 160.2
RightHand  1.05204 -13.9151 -8.23118
LeftShoulder1  -0.0113984 -0.741802 -3.37779
LeftArm  1.80463 24.8827 -66.1478
LeftForeArm  36.7793 -62.0905 -19.5308
LeftHand  -0.124961 -1.14388 12.172
HEad  6.192 23.6655 -7.43546
RightUpLeg  -21.6714 -14.326 7.49985
RightLeg  14.9581 5.77348 1.14999
RightFoot  -0.833666 -0.00296361 0.127516
RightToes  -15.6599 -0.0586085 -0.144652
565
root  4.3257 34.1328 -11.9481 -166.494 58.1444 -179.832
LeftUpLeg  -24.5967 9.12319 4.05568
LeftLeg  8.81053 -1.53089 -0.138402
LeftFoot  13.9787 0.0130282 -0.106279
LeftToes  -22.5703 7.65994e-007 1.12379e-007
Spine  8.53127 5.48702 0.11783
Spine1  16.6876 12.1133 -0.976799
RightShoulder  0.127759 3.37419 -11.6573
RightArm  10.036 33.3859 91.7325
RightForeArm  127.071 61.8869 160.376
RightHand  1.06766 -13.9964 -8.30743
LeftShoulder1  -0.0115249 -0.68871 -3.53847
LeftArm  -1.54138 24.8126 -67.8756
LeftForeArm  34.1789 -58.8074 -16.9942
LeftHand  0.025773 0.297114 9.32799
HEad  6.31559 23.9516 -7.44422
RightUpLeg  -21.3534 -14.6946 7.45216
RightLeg  14.6684 5.11058 0.991622
RightFoot  -0.876543 -0.00376464 0.123841
RightToes  -15.6765 -0.0586909 -0.145262
566
root  4.35634 34.1424 -11.9178 -166.882 57.157 179.885
LeftUpLeg  -24.3466 9.43134 3.77401
LeftLeg  8.95599 -1.75279 -0.162813
LeftFoot  13.6648 0.0195369 -0.163066
LeftToes  -22.3906 7.65994e-007 1.12379e-007
Spine  8.35712 5.43168 0.11424
Spine1  16.3578 11.9519 -0.894897
RightShoulder  0.122953 3.30417 -11.5669
RightArm  10.3861 33.282 92.0484
RightForeArm  127.3 61.7177 160.518
RightHand  1.07464 -13.9225 -8.41063
LeftShoulder1  -0.0116841 -0.707848 -3.74516
LeftArm  -4.8073 24.8174 -69.1968
LeftForeArm  32.1433 -55.9125 -15.1492
LeftHand  0.0781581 1.17815 7.17836
HEad  6.55972 24.1252 -7.39662
RightUpLeg  -21.017 -14.8669 7.34224
RightLeg  14.3158 4.31699 0.810591
RightFoot  -0.894361 -0.00482805 0.125444
RightToes  -15.6849 -0.0588428 -0.146165
